<svg xmlns="http://www.w3.org/2000/svg" width="512" height="512" viewBox="0 0 512 512">
  <defs>
    <linearGradient id="g" x1="0" y1="0" x2="1" y2="1">
      <stop offset="0" stop-color="#4f46e5"/>
      <stop offset="1" stop-color="#4338ca"/>
    </linearGradient>
  </defs>
  <rect x="0" y="0" width="512" height="512" rx="120" fill="url(#g)"/>
  <g fill="#fff" opacity="0.95">
    <path d="M197 124c14-14 33-16 50-6l33 22c17 11 22 33 11 50l-20 33c-6 9-6 20 0 29 28 45 66 83 111 111 9 6 20 6 29 0l33-20c17-11 39-6 50 11l22 33c11 17 8 36-6 50l-22 22c-17 17-39 25-61 22-153-20-276-143-296-296-3-22 5-44 22-61l22-22z"/>
    <circle cx="388" cy="162" r="26"/>
  </g>
</svg>
